<svg width="130" height="130" viewBox="0 0 130 130" fill="none" xmlns="http://www.w3.org/2000/svg">
<path d="M65 129.759C63.2119 129.759 61.5429 129.282 59.9932 128.447L44.1385 119.03C41.7543 117.719 42.9464 117.242 43.6616 117.003C46.8803 115.931 47.4763 115.692 50.8142 113.785C51.1718 113.546 51.6486 113.666 52.0062 113.904L64.1655 121.176C64.6424 121.414 65.2384 121.414 65.5961 121.176L113.16 93.6385C113.637 93.4001 113.876 92.9233 113.876 92.3272V37.372C113.876 36.7759 113.637 36.2991 113.16 36.0607L65.5961 8.64264C65.1192 8.40422 64.5232 8.40422 64.1655 8.64264L16.6012 36.0607C16.1244 36.2991 15.886 36.8951 15.886 37.372V92.3272C15.886 92.8041 16.1244 93.4001 16.6012 93.6385L29.595 101.149C36.6283 104.725 41.039 100.553 41.039 96.3803V42.1403C41.039 41.4251 41.6351 40.7098 42.4695 40.7098H48.5492C49.2644 40.7098 49.9797 41.3059 49.9797 42.1403V96.3803C49.9797 105.798 44.8537 111.281 35.9131 111.281C33.1713 111.281 31.0255 111.281 24.9458 108.301L12.4289 101.149C9.32949 99.3605 7.42215 96.0227 7.42215 92.4464V37.4912C7.42215 33.9149 9.32949 30.5771 12.4289 28.7889L59.9932 1.25169C62.9735 -0.417231 67.0266 -0.417231 70.0068 1.25169L117.571 28.7889C120.671 30.5771 122.578 33.9149 122.578 37.4912V92.4464C122.578 96.0227 120.671 99.3605 117.571 101.149L70.0068 128.686C68.4571 129.401 66.6689 129.759 65 129.759ZM79.6627 91.9696C58.8011 91.9696 54.5096 82.4329 54.5096 74.3267C54.5096 73.6114 55.1057 72.8962 55.9401 72.8962H62.139C62.8542 72.8962 63.4503 73.373 63.4503 74.0883C64.404 80.4063 67.1458 83.5058 79.7819 83.5058C89.7954 83.5058 94.087 81.2408 94.087 75.8764C94.087 72.777 92.8949 70.512 77.2785 68.9623C64.2848 67.651 56.1786 64.79 56.1786 54.4188C56.1786 44.7629 64.2848 39.0409 77.8746 39.0409C93.1333 39.0409 100.643 44.2861 101.597 55.7301C101.597 56.0877 101.478 56.4454 101.239 56.803C101.001 57.0414 100.643 57.2798 100.286 57.2798H94.087C93.4909 57.2798 92.8949 56.803 92.7757 56.207C91.3451 49.6505 87.6497 47.5047 77.8746 47.5047C66.9073 47.5047 65.5961 51.3194 65.5961 54.1804C65.5961 57.6375 67.1458 58.7103 81.9277 60.6177C96.5903 62.525 103.504 65.2668 103.504 75.5188C103.385 86.0092 94.8022 91.9696 79.6627 91.9696Z" fill="#539E43"/>
</svg>
