<svg width="133" height="133" viewBox="0 0 133 133" fill="none" xmlns="http://www.w3.org/2000/svg">
<path d="M130.922 18.7031H2.07812V105.984H130.922V18.7031Z" fill="#DBD2C1"/>
<path d="M2.07812 18.7031V105.984H56.1094V122.609H81.0469V105.984H130.922V18.7031H2.07812ZM124.688 99.75H8.3125V24.9375H124.688V99.75Z" fill="#A3AEB5"/>
<path d="M81.0469 105.984H56.1094V112.219H81.0469V105.984Z" fill="#788287"/>
<path d="M99.75 49.875H87.2812V62.3438H99.75V49.875Z" fill="#EAD13F"/>
<path d="M99.75 62.3438H87.2812V74.8125H99.75V62.3438Z" fill="#D1712A"/>
<path d="M99.75 74.8125H87.2812V87.2812H99.75V74.8125Z" fill="#CC4121"/>
<path d="M112.219 74.8125H99.75V87.2812H112.219V74.8125Z" fill="#8D3E93"/>
<path d="M112.219 62.3438H99.75V74.8125H112.219V62.3438Z" fill="#248EBC"/>
<path d="M112.219 49.875H99.75V62.3438H112.219V49.875Z" fill="#6F9B45"/>
<path d="M20.7812 37.4062H78.9688V87.2812H20.7812V37.4062ZM87.2812 37.4062V49.875H99.75V37.4062H87.2812Z" fill="#FFFAEE"/>
<path d="M133 108.062V16.625H0V108.062H54.0312V120.531H49.875V124.688H87.2812V120.531H83.125V108.062H133ZM4.15625 103.906V20.7812H128.844V103.906H4.15625ZM78.9688 120.531H58.1875V108.062H78.9688V120.531ZM112.219 49.875H99.75V37.4062H112.219V49.875Z" fill="#231F20"/>
</svg>
