<svg width="128" height="128" viewBox="0 0 128 128" fill="none" xmlns="http://www.w3.org/2000/svg">
<g clip-path="url(#clip0_11_2)">
<path d="M124.718 3.28198H3.282V124.718H124.718V3.28198Z" fill="#EFEFEF"/>
<path d="M124.718 3.28198H3.282V22.9742H124.718V3.28198Z" fill="#61ACD2"/>
<path d="M22.9743 3.28198H3.282V22.9742H22.9743V3.28198Z" fill="#F4A026"/>
<path d="M124.718 3.28198H105.026V22.9742H124.718V3.28198Z" fill="#CA463D"/>
<path d="M111.036 72.8704L86.2018 50.7819C84.847 49.5772 82.773 49.6989 81.5685 51.0529C80.3638 52.4074 80.485 54.4819 81.8395 55.6864L103.916 75.3229L81.8393 94.9592C80.4848 96.1637 80.3633 98.2382 81.5683 99.5927C82.2168 100.322 83.117 100.693 84.022 100.693C84.7975 100.693 85.5768 100.42 86.202 99.8637L111.036 77.7752C111.737 77.1522 112.137 76.2599 112.137 75.3229C112.137 74.3859 111.736 73.4932 111.036 72.8704Z" fill="black"/>
<path d="M46.4318 51.053C45.227 49.6985 43.1527 49.577 41.7982 50.782L16.964 72.8705C16.264 73.4935 15.8633 74.3857 15.8633 75.3227C15.8633 76.2597 16.264 77.1522 16.964 77.775L41.7982 99.8635C42.4235 100.42 43.2022 100.693 43.9785 100.693C44.883 100.693 45.7838 100.321 46.4323 99.5925C47.6368 98.238 47.5153 96.1635 46.1613 94.959L24.0838 75.3232L46.1608 55.687C47.515 54.482 47.6368 52.4075 46.4318 51.053Z" fill="black"/>
<path d="M71.8435 49.1529C70.111 48.6287 68.2765 49.6079 67.751 51.3427L53.9665 96.8539C53.441 98.5889 54.4215 100.421 56.1562 100.947C56.4735 101.042 56.7935 101.088 57.109 101.088C58.5173 101.088 59.8193 100.174 60.249 98.7569L74.0335 53.2457C74.559 51.5107 73.5787 49.6784 71.8435 49.1529Z" fill="black"/>
<path d="M124.718 0H3.282C1.46925 0 0 1.46925 0 3.282V124.718C0 126.531 1.46925 128 3.282 128H124.718C126.53 128 128 126.531 128 124.718V3.282C128 1.46925 126.53 0 124.718 0ZM121.436 6.564V19.6922H108.308V6.564H121.436ZM26.2565 19.6922V6.564H101.744V19.6922H26.2565ZM6.564 6.564H19.6922V19.6922H6.564V6.564ZM6.564 121.436V26.2565H121.436V121.436H6.564Z" fill="black"/>
</g>
<defs>
<clipPath id="clip0_11_2">
<rect width="128" height="128" fill="white"/>
</clipPath>
</defs>
</svg>
